<svg xmlns="http://www.w3.org/2000/svg" width="1024" height="500" viewBox="0 0 1024 500">
    <rect width="1024" height="500" fill="#17A05A"/>
    <!-- Fondo liso a proposito: el halo de la campana es verde puro, y
         cualquier tono distinto detras lo haria visible como un anillo. -->
    <g transform="translate(-38,-8) scale(4.6)">
    <path d="M26.81,69.68 A30,30 0 0 1 26.81,44.32" fill="none" stroke="#FFFFFF" stroke-width="4.5" stroke-linecap="round"/>
    <path d="M81.19,44.32 A30,30 0 0 1 81.19,69.68" fill="none" stroke="#FFFFFF" stroke-width="4.5" stroke-linecap="round"/>
    <path d="M19.56,73.06 A38,38 0 0 1 19.56,40.94" fill="none" stroke="#FFFFFF" stroke-width="4.5" stroke-linecap="round"/>
    <path d="M88.44,40.94 A38,38 0 0 1 88.44,73.06" fill="none" stroke="#FFFFFF" stroke-width="4.5" stroke-linecap="round"/>
    <path d="M36,37 L72,37 A5,5 0 0 1 77,42 L77,66 A5,5 0 0 1 72,71 L36,71 A5,5 0 0 1 31,66 L31,42 A5,5 0 0 1 36,37 Z" fill="none" stroke="#FFFFFF" stroke-width="5" stroke-linejoin="round"/>
    <path d="M34,40 L54,55.5 L74,40" fill="none" stroke="#FFFFFF" stroke-width="5" stroke-linecap="round" stroke-linejoin="round"/>
    <path d="M54.00,46.59 C59.48,46.59 62.76,50.60 62.76,56.08 L62.76,60.09 C62.76,61.19 63.49,62.28 64.58,63.01 L65.68,63.74 C66.41,64.25 66.05,65.20 65.17,65.20 L42.83,65.20 C41.95,65.20 41.59,64.25 42.32,63.74 L43.41,63.01 C44.51,62.28 45.24,61.19 45.24,60.09 L45.24,56.08 C45.24,50.60 48.52,46.59 54.00,46.59 Z" fill="#17A05A" stroke="#17A05A" stroke-width="6" stroke-linejoin="round"/>
    <path d="M51.66,45.12 a2.34,2.34 0 1,0 4.67,0 a2.34,2.34 0 1,0 -4.67,0 Z" fill="#17A05A" stroke="#17A05A" stroke-width="6" stroke-linejoin="round"/>
    <path d="M51.00,71.00 a3.00,3.00 0 1,0 6.00,0 a3.00,3.00 0 1,0 -6.00,0 Z" fill="#17A05A" stroke="#17A05A" stroke-width="6" stroke-linejoin="round"/>
    <path d="M54.00,46.59 C59.48,46.59 62.76,50.60 62.76,56.08 L62.76,60.09 C62.76,61.19 63.49,62.28 64.58,63.01 L65.68,63.74 C66.41,64.25 66.05,65.20 65.17,65.20 L42.83,65.20 C41.95,65.20 41.59,64.25 42.32,63.74 L43.41,63.01 C44.51,62.28 45.24,61.19 45.24,60.09 L45.24,56.08 C45.24,50.60 48.52,46.59 54.00,46.59 Z" fill="#FFFFFF"/>
    <path d="M51.66,45.12 a2.34,2.34 0 1,0 4.67,0 a2.34,2.34 0 1,0 -4.67,0 Z" fill="#FFFFFF"/>
    <path d="M51.00,71.00 a3.00,3.00 0 1,0 6.00,0 a3.00,3.00 0 1,0 -6.00,0 Z" fill="#FFFFFF"/>
    </g>
    <text x="430" y="238" font-family="Segoe UI, Arial, sans-serif" font-weight="700"
          font-size="80" fill="#FFFFFF">Email Alarm</text>
    <text x="434" y="296" font-family="Segoe UI, Arial, sans-serif"
          font-size="29" fill="#FFFFFF" fill-opacity="0.88">The email you can&#8217;t afford to miss</text>
</svg>
